<svg xmlns="http://www.w3.org/2000/svg" viewBox="0 0 27.65 25.14"><defs><style>.cls-1{fill:#fff;}</style></defs><title>linkedin_1</title><g id="Layer_2" data-name="Layer 2"><g id="HEADER"><g id="LinkedIn_logo" data-name="LinkedIn logo"><rect class="cls-1" x="0.7" y="8.06" width="5.39" height="17.08"/><path class="cls-1" d="M20.81,7.9c-3.08,0-5,1.67-5.38,2.84V8.06h-6c.08,1.42,0,17.08,0,17.08h6V15.9a4,4,0,0,1,.13-1.4,3.11,3.11,0,0,1,2.92-2.09c2.11,0,3.06,1.58,3.06,3.89v8.84h6.11v-9.5C27.65,10.35,24.64,7.9,20.81,7.9Z"/><path class="cls-1" d="M3.29,0A3,3,0,0,0,0,3a3,3,0,0,0,3.22,3h0A3,3,0,0,0,6.54,3,3,3,0,0,0,3.29,0Z"/></g></g></g></svg>