<svg xmlns="http://www.w3.org/2000/svg" viewBox="0 0 425.93 89.29"><defs><style>.cls-1{fill:#fff;}.cls-2{fill:#fcfcfc;}.cls-3{fill:#f58837;}.cls-4{fill:#f72e1e;}.cls-5{fill:#189cd8;}.cls-6{fill:#98c93c;}</style></defs><title>logo</title><g id="Layer_2" data-name="Layer 2"><g id="HEADER"><g id="SF_Logo_Group_" data-name="SF Logo &lt;Group&gt;"><path class="cls-1" d="M202,88.71V67.22H197.9v-2.8H202V61.21c0-4.25,1.41-8.5,6.82-8.5a10,10,0,0,1,2.52.33v2.89a11.24,11.24,0,0,0-2.4-.26c-2.7,0-3.71,1.8-3.71,5.72v3h5.1v2.8h-5.1V88.71Z"/><path class="cls-1" d="M233,76.52c0,6.86-3.87,12.77-11.19,12.77-6.75,0-10.89-5.39-10.89-12.71,0-7,4-12.74,11.14-12.74C228.65,63.84,233,68.89,233,76.52Zm-18.71,0c0,5.58,2.91,9.89,7.7,9.89s7.63-4,7.63-9.88c0-5.61-2.71-9.89-7.73-9.89S214.29,70.86,214.29,76.56Z"/><path class="cls-1" d="M256.32,81.62c0,2.38,0,5.94,0,7.09h-3.13c-.09-.63-.14-2.18-.15-4-1.1,2.79-3.51,4.54-7.61,4.54-3.77,0-8-1.67-8-8.84v-16h3.2V79.73c0,3.38,1.06,6.6,5.52,6.6,5,0,6.89-2.79,6.89-9.34V64.42h3.24Z"/><path class="cls-1" d="M261.9,70.54c0-2.13,0-4.21,0-6.12H265c.11.75.16,3.63.13,4.33,1-2.3,3-4.91,7.88-4.91,4.42,0,8.14,2.59,8.14,9.18V88.71h-3.24V73.48c0-4-1.63-6.69-5.62-6.69-5.23,0-7.16,4.21-7.16,9.32v12.6H261.9Z"/><path class="cls-1" d="M307,53.19V81.78c0,2.31,0,4.54,0,6.93h-3.1c-.11-.61-.17-2.7-.18-3.79-1.21,2.77-3.81,4.37-7.92,4.37-6.29,0-10.1-5.11-10.1-12.45s4.13-13,10.79-13c4.61,0,6.54,1.93,7.23,3.39v-14ZM289.08,76.73c0,6.29,3.14,9.7,7.16,9.7,6.08,0,7.6-4.32,7.6-10.34s-1.34-9.39-7.21-9.39C292.06,66.7,289.08,70.34,289.08,76.73Z"/><path class="cls-1" d="M330.29,83.79a31.2,31.2,0,0,0,.34,4.92h-3.1a14.78,14.78,0,0,1-.42-3.48c-.84,1.71-2.88,4.06-7.75,4.06-5.68,0-8.12-3.68-8.12-7.35,0-5.38,4.19-7.83,11.45-7.83h4.4V71.82c0-2.3-.71-5.27-5.8-5.27-4.52,0-5.23,2.32-5.72,4.27H312.4c.3-3,2.15-7,9-7,5.72,0,8.91,2.38,8.91,7.8Zm-3.16-7.22h-4.38c-5.15,0-8.15,1.38-8.15,5.21,0,2.82,2,4.8,5.19,4.8,6.45,0,7.34-4.31,7.34-9.18Z"/><path class="cls-1" d="M333,64.42h4.38V57h3.23v7.4h5.59v2.8h-5.59V82.3c0,2.56.58,4,2.85,4a9.1,9.1,0,0,0,2.34-.25v2.61a9.78,9.78,0,0,1-3.29.44c-3.42,0-5.13-1.74-5.13-5.69V67.22H333Z"/><path class="cls-1" d="M349.72,53.19H353v5h-3.23Zm0,11.23H353V88.71h-3.23Z"/><path class="cls-1" d="M379.6,76.52c0,6.86-3.87,12.77-11.19,12.77-6.74,0-10.89-5.39-10.89-12.71,0-7,4-12.74,11.14-12.74C375.26,63.84,379.6,68.89,379.6,76.52Zm-18.7,0c0,5.58,2.9,9.89,7.69,9.89s7.64-4,7.64-9.88c0-5.61-2.72-9.89-7.73-9.89S360.9,70.86,360.9,76.56Z"/><path class="cls-1" d="M384.15,70.54c0-2.13,0-4.21,0-6.12h3.16c.1.75.16,3.63.12,4.33,1-2.3,3-4.91,7.88-4.91,4.43,0,8.14,2.59,8.14,9.18V88.71h-3.23V73.48c0-4-1.64-6.69-5.63-6.69-5.23,0-7.16,4.21-7.16,9.32v12.6h-3.23Z"/><path class="cls-1" d="M410.51,81.89c.77,2.93,2.88,4.68,6.47,4.68,4,0,5.57-1.79,5.57-4.28s-1.14-3.76-6.21-5c-6.58-1.59-8.09-3.59-8.09-6.84,0-3.4,2.53-6.63,8.36-6.63s8.45,3.48,8.8,6.9h-3.17c-.4-1.83-1.81-4.2-5.76-4.2s-5,1.88-5,3.67c0,2,1.08,3.06,5.73,4.18,7.09,1.69,8.69,4,8.69,7.66,0,4.34-3.5,7.24-9,7.24-5.89,0-9-3-9.64-7.4Z"/><path class="cls-2" d="M4.7,81.29c.67,2.55,2.58,4,5.76,4,3.4,0,4.72-1.43,4.72-3.52s-1.12-3.14-5.58-4.23C2.38,75.82,1,73.61,1,70.25c0-3.51,2.55-7,9.08-7s9.14,3.74,9.44,7.15H14.91c-.33-1.46-1.42-3.57-5.08-3.57-3.22,0-4.18,1.52-4.18,3,0,1.71,1,2.56,5.37,3.61,7.59,1.8,9,4.35,9,8C20,85.72,16.69,89,10.3,89,3.72,89,.61,85.68,0,81.29ZM22.86,70.15c0-2.12,0-4.32,0-6.34h4.55c.08.72.19,2.44.19,3.62a7.6,7.6,0,0,1,7.09-4.2c3.49,0,5.79,1.78,6.71,4.28a8.39,8.39,0,0,1,7.79-4.28c4,0,7.75,2.41,7.75,9V88.39H52.25V72.82c0-2.73-1-5.57-4.62-5.57s-5.4,2.8-5.4,7v14.1H37.58V73c0-3-.84-5.71-4.52-5.71s-5.5,2.9-5.5,7.5V88.39h-4.7ZM79.15,82.84a41.7,41.7,0,0,0,.34,5.55H75a12.79,12.79,0,0,1-.39-3.06C73.7,86.92,71.8,89,67.11,89c-5.82,0-8.3-3.79-8.3-7.55,0-5.5,4.35-8,11.63-8H74.5v-2c0-2.08-.68-4.55-5-4.55-3.86,0-4.54,1.88-5,3.77H60c.33-3.58,2.55-7.42,9.69-7.4,6.12,0,9.49,2.5,9.49,8.14Zm-4.62-6.28H70.78c-4.74,0-7.15,1.34-7.15,4.59,0,2.41,1.62,4.2,4.54,4.2,5.61,0,6.36-3.8,6.36-8Zm35.09-9V63.81h-5.3V56.68H99.58v7.13H97.83c-5.23,0-7.54.19-10.09,3.29l0-3.27-4.8,0c0,1.46.05,3.44.05,6.68v17.9h4.74V76.7c0-7.56,4.06-9.14,10.08-9.1h1.75V82.51c0,4.13,1.67,6.22,5.68,6.22a12.29,12.29,0,0,0,3.85-.45V84.79a9.8,9.8,0,0,1-2,.18c-2.18,0-2.76-1.13-2.76-3.41v-14Z"/><polyline class="cls-3" points="171.13 89.21 171.13 20.92 157.18 20.92 157.18 89.17"/><polyline class="cls-4" points="151.38 89.21 151.38 43.45 137.43 43.45 137.43 89.17"/><polyline class="cls-5" points="131.64 89.21 131.64 61.16 117.68 61.16 117.68 89.17"/><polyline class="cls-6" points="191.25 89.21 191.25 0 177.3 0 177.3 89.17"/></g></g></g></svg>