<svg xmlns="http://www.w3.org/2000/svg" viewBox="0 0 28.08 23.4"><defs><style>.cls-1{fill:#fff;}</style></defs><title>twitter</title><g id="Layer_2" data-name="Layer 2"><g id="HEADER"><path id="Twitter_logo" data-name="Twitter logo" class="cls-1" d="M27.3.43a11.09,11.09,0,0,1-3.66,1.43A5.7,5.7,0,0,0,19.44,0a5.83,5.83,0,0,0-5.76,5.91,5.92,5.92,0,0,0,.15,1.34A16.24,16.24,0,0,1,2,1.08a6.06,6.06,0,0,0-.78,3A6,6,0,0,0,3.74,9a5.61,5.61,0,0,1-2.61-.74V8.3a5.86,5.86,0,0,0,4.62,5.79,5.42,5.42,0,0,1-1.52.21,5.49,5.49,0,0,1-1.08-.1,5.79,5.79,0,0,0,5.38,4.1,11.41,11.41,0,0,1-7.16,2.53A12.44,12.44,0,0,1,0,20.75,16.07,16.07,0,0,0,8.83,23.4c10.6,0,16.39-9,16.39-16.81,0-.25,0-.51,0-.76a12,12,0,0,0,2.88-3.06,11.32,11.32,0,0,1-3.31.93A5.89,5.89,0,0,0,27.3.43Z"/></g></g></svg>